<svg
  version="1.1"
  viewBox="0 0 15.875 15.875"
  xmlns="http://www.w3.org/2000/svg"
>
  <g
    transform="matrix(1.001 0 0 .99931 -129.13 -303.08)"
    shape-rendering="auto"
  >
    <path
      d="m142.81 311.22h-2.9197a0.26461 0.26461 0 0 1-4e-3 0 0.26461 0.26461 0 0 1-0.0264-2e-3 0.26461 0.26461 0 0 1-0.0264-4e-3 0.26461 0.26461 0 0 1-0.0253-7e-3 0.26461 0.26461 0 0 1-0.0248-9e-3 0.26461 0.26461 0 0 1-0.0238-0.0119 0.26461 0.26461 0 0 1-0.0222-0.0145 0.26461 0.26461 0 0 1-0.0207-0.016 0.26461 0.26461 0 0 1-0.0191-0.0181 0.26461 0.26461 0 0 1-0.0176-0.0202 0.26461 0.26461 0 0 1-0.015-0.0217 0.26461 0.26461 0 0 1-0.0129-0.0233 0.26461 0.26461 0 0 1-0.0103-0.0243 0.26461 0.26461 0 0 1-8e-3 -0.0253l-0.68368-2.5487-0.6134 2.9373a0.26461 0.26461 0 0 1-2e-3 9e-3 0.26461 0.26461 0 0 1-8e-3 0.0253 0.26461 0.26461 0 0 1-0.01 0.0243 0.26461 0.26461 0 0 1-0.0124 0.0233 0.26461 0.26461 0 0 1-0.0145 0.0222 0.26461 0.26461 0 0 1-0.0171 0.0202 0.26461 0.26461 0 0 1-0.0186 0.0191 0.26461 0.26461 0 0 1-0.0207 0.0165 0.26461 0.26461 0 0 1-0.0222 0.0145 0.26461 0.26461 0 0 1-0.0233 0.0124 0.26461 0.26461 0 0 1-0.0248 0.01 0.26461 0.26461 0 0 1-0.0253 7e-3 0.26461 0.26461 0 0 1-0.0258 5e-3 0.26461 0.26461 0 0 1-0.0264 2e-3 0.26461 0.26461 0 0 1-0.0263 0 0.26461 0.26461 0 0 1-0.0264-4e-3 0.26461 0.26461 0 0 1-0.0258-6e-3 0.26461 0.26461 0 0 1-0.0253-8e-3 0.26461 0.26461 0 0 1-0.0243-0.0103 0.26461 0.26461 0 0 1-0.0227-0.0134 0.26461 0.26461 0 0 1-0.0217-0.015 0.26461 0.26461 0 0 1-0.0196-0.0176 0.26461 0.26461 0 0 1-0.0181-0.0191 0.26461 0.26461 0 0 1-0.016-0.0212 0.26461 0.26461 0 0 1-0.0139-0.0227 0.26461 0.26461 0 0 1-0.0119-0.0238 0.26461 0.26461 0 0 1-9e-3 -0.0248l-0.53899-1.6991-0.77566 2.8908a0.26461 0.26461 0 0 1-8e-3 0.0243 0.26461 0.26461 0 0 1-0.0109 0.0243 0.26461 0.26461 0 0 1-0.0129 0.0227 0.26461 0.26461 0 0 1-0.0155 0.0217 0.26461 0.26461 0 0 1-0.0171 0.0202 0.26461 0.26461 0 0 1-0.0196 0.0181 0.26461 0.26461 0 0 1-0.0212 0.016 0.26461 0.26461 0 0 1-0.0222 0.0134 0.26461 0.26461 0 0 1-0.0238 0.0119 0.26461 0.26461 0 0 1-0.0248 9e-3 0.26461 0.26461 0 0 1-0.0258 7e-3 0.26461 0.26461 0 0 1-0.0258 4e-3 0.26461 0.26461 0 0 1-0.0269 1e-3 0.26461 0.26461 0 0 1-0.0264-1e-3 0.26461 0.26461 0 0 1-0.0258-4e-3 0.26461 0.26461 0 0 1-0.0258-6e-3 0.26461 0.26461 0 0 1-0.0248-9e-3 0.26461 0.26461 0 0 1-0.0238-0.0114 0.26461 0.26461 0 0 1-0.0227-0.014 0.26461 0.26461 0 0 1-0.0212-0.016 0.26461 0.26461 0 0 1-0.0191-0.0181 0.26461 0.26461 0 0 1-0.0176-0.0196 0.26461 0.26461 0 0 1-0.0155-0.0217 0.26461 0.26461 0 0 1-0.0129-0.0227 0.26461 0.26461 0 0 1-0.0109-0.0243 0.26461 0.26461 0 0 1-8e-3 -0.0248l-1.0315-3.8478-0.66818 2.4944a0.26461 0.26461 0 0 1-5.3e-4 2e-3 0.26461 0.26461 0 0 1-8e-3 0.0253 0.26461 0.26461 0 0 1-0.0109 0.0243 0.26461 0.26461 0 0 1-0.0129 0.0227 0.26461 0.26461 0 0 1-0.0155 0.0217 0.26461 0.26461 0 0 1-0.0176 0.0196 0.26461 0.26461 0 0 1-0.0196 0.0181 0.26461 0.26461 0 0 1-0.0207 0.016 0.26461 0.26461 0 0 1-0.0227 0.0134 0.26461 0.26461 0 0 1-0.0238 0.0119 0.26461 0.26461 0 0 1-0.0248 9e-3 0.26461 0.26461 0 0 1-0.0258 7e-3 0.26461 0.26461 0 0 1-0.0264 4e-3 0.26461 0.26461 0 0 1-0.0264 2e-3h-2.8598c0.15031 0.24647 0.32343 0.48254 0.53071 0.69866h2e-3c1.6714 1.7304 3.3759 3.4337 4.9299 4.9196 0.10342 0.11031 0.24978 0.10129 0.28783 0.10129 0.0345 0 0.18087 0.0117 0.29404-0.093 1.716-1.5968 3.4372-3.3886 4.9237-4.9299 0.27443-0.28622 0.48124-0.61011 0.65578-0.94671z"
      fill="#dd342e"
    />
    <path
      d="m139.34 305.27c-0.86064-0.0115-1.6721 0.3224-2.3668 0.82992-1.585-1.198-3.8065-1.0677-5.2152 0.35967-1.1912 1.2087-1.4652 2.9911-0.83561 4.4747h2.9228l0.87127-3.2541a0.26461 0.26461 0 0 1 2e-3 -6e-3 0.26461 0.26461 0 0 1 9e-3 -0.0253 0.26461 0.26461 0 0 1 0.0114-0.0238 0.26461 0.26461 0 0 1 0.0134-0.0227 0.26461 0.26461 0 0 1 0.0155-0.0212 0.26461 0.26461 0 0 1 0.0176-0.0196 0.26461 0.26461 0 0 1 0.0196-0.0181 0.26461 0.26461 0 0 1 0.0212-0.0155 0.26461 0.26461 0 0 1 0.0227-0.0134 0.26461 0.26461 0 0 1 0.0243-0.0114 0.26461 0.26461 0 0 1 0.0248-9e-3 0.26461 0.26461 0 0 1 0.0258-6e-3 0.26461 0.26461 0 0 1 0.0263-4e-3 0.26461 0.26461 0 0 1 0.0264-1e-3 0.26461 0.26461 0 0 1 0.0264 2e-3 0.26461 0.26461 0 0 1 0.0258 5e-3 0.26461 0.26461 0 0 1 0.0258 7e-3 0.26461 0.26461 0 0 1 0.0248 9e-3 0.26461 0.26461 0 0 1 0.0233 0.0119 0.26461 0.26461 0 0 1 0.0227 0.0139 0.26461 0.26461 0 0 1 0.0207 0.0165 0.26461 0.26461 0 0 1 0.0191 0.0181 0.26461 0.26461 0 0 1 0.017 0.0202 0.26461 0.26461 0 0 1 0.015 0.0217 0.26461 0.26461 0 0 1 0.0129 0.0233 0.26461 0.26461 0 0 1 0.0109 0.0243 0.26461 0.26461 0 0 1 8e-3 0.0248l1.0315 3.8499 0.75189-2.8127a0.26461 0.26461 0 0 1 6e-3 -0.0181 0.26461 0.26461 0 0 1 0.01-0.0248 0.26461 0.26461 0 0 1 0.0124-0.0232 0.26461 0.26461 0 0 1 0.0145-0.0222 0.26461 0.26461 0 0 1 0.0165-0.0202 0.26461 0.26461 0 0 1 0.0186-0.0191 0.26461 0.26461 0 0 1 0.0207-0.0165 0.26461 0.26461 0 0 1 0.0222-0.0145 0.26461 0.26461 0 0 1 0.0233-0.0124 0.26461 0.26461 0 0 1 0.0243-0.0103 0.26461 0.26461 0 0 1 0.0253-7e-3 0.26461 0.26461 0 0 1 0.0264-5e-3 0.26461 0.26461 0 0 1 0.0264-2e-3 0.26461 0.26461 0 0 1 0.0264 5.3e-4 0.26461 0.26461 0 0 1 0.0263 3e-3 0.26461 0.26461 0 0 1 0.0258 6e-3 0.26461 0.26461 0 0 1 0.0248 8e-3 0.26461 0.26461 0 0 1 0.0243 0.0109 0.26461 0.26461 0 0 1 0.0232 0.0129 0.26461 0.26461 0 0 1 0.0217 0.015 0.26461 0.26461 0 0 1 0.0196 0.0176 0.26461 0.26461 0 0 1 0.0186 0.0191 0.26461 0.26461 0 0 1 0.016 0.0207 0.26461 0.26461 0 0 1 0.014 0.0227 0.26461 0.26461 0 0 1 0.0119 0.0238 0.26461 0.26461 0 0 1 9e-3 0.0248l0.50747 1.6035 0.6351-3.0432a0.26461 0.26461 0 0 1 5e-3 -0.0196 0.26461 0.26461 0 0 1 9e-3 -0.0253 0.26461 0.26461 0 0 1 0.0114-0.0238 0.26461 0.26461 0 0 1 0.0134-0.0227 0.26461 0.26461 0 0 1 0.0155-0.0212 0.26461 0.26461 0 0 1 0.0176-0.0196 0.26461 0.26461 0 0 1 0.0196-0.0176 0.26461 0.26461 0 0 1 0.0217-0.016 0.26461 0.26461 0 0 1 0.0227-0.0134 0.26461 0.26461 0 0 1 0.0238-0.0114 0.26461 0.26461 0 0 1 0.0248-8e-3 0.26461 0.26461 0 0 1 0.0258-6e-3 0.26461 0.26461 0 0 1 0.0263-4e-3 0.26461 0.26461 0 0 1 0.0264-1e-3 0.26461 0.26461 0 0 1 0.0264 2e-3 0.26461 0.26461 0 0 1 0.0258 4e-3 0.26461 0.26461 0 0 1 0.0258 7e-3 0.26461 0.26461 0 0 1 0.0248 9e-3 0.26461 0.26461 0 0 1 0.0238 0.0119 0.26461 0.26461 0 0 1 0.0222 0.014 0.26461 0.26461 0 0 1 0.0207 0.016 0.26461 0.26461 0 0 1 0.0191 0.0186 0.26461 0.26461 0 0 1 0.0176 0.0202 0.26461 0.26461 0 0 1 0.015 0.0212 0.26461 0.26461 0 0 1 0.0129 0.0233 0.26461 0.26461 0 0 1 0.0109 0.0243 0.26461 0.26461 0 0 1 8e-3 0.0253l0.91829 3.4298h2.9238a0.26465 0.26465 0 0 1 0.0109 0 0.26465 0.26465 0 0 1 0.0181 2e-3c0.49909-1.4309 0.19337-3.085-0.93278-4.2266-0.85684-0.70801-1.8295-1.1875-2.7755-1.1875z"
      fill="#dd342e"
    />
  </g>
</svg>
